<?xml version="1.0" standalone="no"?>
<!DOCTYPE svg PUBLIC "-//W3C//DTD SVG 20010904//EN"
 "http://www.w3.org/TR/2001/REC-SVG-20010904/DTD/svg10.dtd">
<svg version="1.0" xmlns="http://www.w3.org/2000/svg" height="477.000000pt" viewBox="0 0 322.000000 477.000000"
 preserveAspectRatio="xMidYMid meet">

<g transform="translate(0.000000,477.000000) scale(0.100000,-0.100000)"
fill="#000000" stroke="none">
<path d="M70 4757 c-24 -8 -41 -23 -52 -47 -17 -33 -18 -162 -15 -2345 l2
-2310 1588 -3 1587 -2 0 2360 0 2360 -1537 -1 c-1164 0 -1547 -3 -1573 -12z
m591 -157 c75 -23 107 -43 172 -107 91 -90 137 -226 116 -352 -44 -280 -336
-433 -594 -313 -90 42 -148 100 -193 190 -36 74 -37 79 -37 187 0 104 2 114
32 175 33 68 92 135 155 177 91 61 235 79 349 43z m1112 -30 c45 -50 32 -136
-24 -166 -96 -49 -199 40 -158 137 30 74 128 89 182 29z m318 1 c41 -41 41
-98 0 -143 -25 -28 -36 -33 -76 -33 -40 0 -51 5 -76 33 -33 37 -37 77 -14 122
20 38 41 49 93 50 35 0 49 -6 73 -29z m-736 -36 c0 -23 -5 -31 -21 -33 -27 -4
-47 21 -39 48 5 16 14 20 33 18 23 -2 27 -8 27 -33z m1295 -2070 l0 -1045
-879 0 c-544 0 -898 4 -931 10 -140 27 -243 130 -270 269 -11 60 -15 1793 -3
1804 3 4 474 7 1045 7 l1038 0 0 -1045z m-740 -1230 c0 -13 -34 -15 -245 -15
-211 0 -245 2 -245 15 0 13 34 15 245 15 211 0 245 -2 245 -15z m-102 -507
c17 -17 17 -349 0 -366 -9 -9 -123 -12 -450 -12 -422 0 -438 1 -448 19 -6 11
-10 88 -10 180 0 132 3 162 16 175 14 14 68 16 448 16 323 0 435 -3 444 -12z"/>
<path d="M455 4576 c-117 -30 -199 -95 -250 -199 -99 -202 -19 -431 183 -525
49 -23 70 -27 152 -27 83 0 103 4 157 29 76 35 153 113 191 193 24 51 27 70
27 158 -1 88 -4 107 -28 156 -81 166 -266 259 -432 215z m230 -61 c52 -25 136
-109 166 -166 20 -38 24 -58 24 -144 0 -90 -3 -105 -28 -153 -37 -70 -91 -123
-163 -158 -51 -25 -70 -29 -144 -29 -74 0 -93 4 -144 29 -125 61 -191 170
-189 311 2 151 84 270 222 322 53 19 205 12 256 -12z"/>
<path d="M1427 3422 c-22 -24 -21 -45 1 -65 37 -34 82 -15 82 35 0 45 -53 64
-83 30z"/>
<path d="M1625 3420 c-24 -26 -13 -68 20 -76 32 -8 55 11 55 45 0 50 -42 67
-75 31z"/>
<path d="M769 3281 l-24 -19 -3 -714 c-1 -392 0 -723 3 -736 3 -12 14 -31 25
-42 20 -20 37 -20 834 -20 808 0 813 0 840 21 l26 20 0 735 c0 721 0 734 -20
754 -20 20 -33 20 -839 20 -791 0 -820 -1 -842 -19z m1663 -18 c17 -15 18 -51
18 -739 l0 -723 -22 -15 c-20 -14 -114 -16 -818 -16 -704 0 -798 2 -818 16
l-22 15 0 724 c0 644 2 725 16 739 14 14 102 16 821 16 736 0 808 -1 825 -17z"/>
<path d="M910 1713 c-24 -9 -61 -46 -76 -75 -45 -87 28 -200 129 -200 139 0
196 155 93 251 -19 18 -39 25 -78 27 -29 2 -60 1 -68 -3z m48 -94 c4 -30 -22
-46 -44 -28 -15 12 -19 41 -7 53 16 16 48 1 51 -25z"/>
<path d="M2140 1680 c0 -6 48 -10 125 -10 77 0 125 4 125 10 0 6 -48 10 -125
10 -77 0 -125 -4 -125 -10z"/>
<path d="M2140 1610 c0 -6 48 -10 125 -10 77 0 125 4 125 10 0 6 -48 10 -125
10 -77 0 -125 -4 -125 -10z"/>
<path d="M2140 1550 c0 -6 48 -10 125 -10 77 0 125 4 125 10 0 6 -48 10 -125
10 -77 0 -125 -4 -125 -10z"/>
<path d="M2140 1490 c0 -6 48 -10 125 -10 77 0 125 4 125 10 0 6 -48 10 -125
10 -77 0 -125 -4 -125 -10z"/>
</g>
</svg>
